<?xml version="1.0" standalone="no"?>
<!DOCTYPE svg PUBLIC "-//W3C//DTD SVG 20010904//EN"
 "http://www.w3.org/TR/2001/REC-SVG-20010904/DTD/svg10.dtd">
<svg version="1.0" xmlns="http://www.w3.org/2000/svg"
 width="18.000000pt" height="18.000000pt" viewBox="0 0 18.000000 18.000000"
 preserveAspectRatio="xMidYMid meet">

<g transform="translate(0.000000,18.000000) scale(0.100000,-0.100000)"
fill="#000000" stroke="none">
<path d="M50 125 c-11 -13 -10 -23 0 -56 13 -39 14 -39 25 -18 9 16 14 18 18
8 4 -10 6 -8 6 5 1 15 4 16 16 6 9 -8 15 -8 15 -2 0 6 3 17 6 25 13 36 -60 63
-86 32z m47 -21 c-9 -9 -28 6 -21 18 4 6 10 6 17 -1 6 -6 8 -13 4 -17z"/>
</g>
</svg>
